<svg width="33" height="33" viewBox="0 0 33 33" fill="none" xmlns="http://www.w3.org/2000/svg">
<path d="M5.28001 1.98792C4.16659 1.98792 3.19111 2.30471 2.47765 2.88089C1.76353 3.45773 1.32793 4.31178 1.32793 5.24502C1.32793 7.05606 2.94955 8.45724 5.09323 8.54106C5.15365 8.56043 5.21657 8.57088 5.28001 8.57208C6.43765 8.57208 7.42237 8.23284 8.12659 7.63224C8.47314 7.33846 8.75156 6.97274 8.94247 6.56048C9.13338 6.14822 9.23221 5.69933 9.23209 5.24502C9.23197 5.23313 9.23153 5.22124 9.23077 5.20938C9.12913 3.38712 7.50751 1.98792 5.28001 1.98792ZM5.28001 3.29207C7.00261 3.29207 7.85137 4.13754 7.92397 5.26218C7.92653 5.52556 7.87006 5.78617 7.7587 6.02488C7.64734 6.26358 7.48393 6.4743 7.28047 6.64157C6.85015 7.00853 6.18487 7.26792 5.28001 7.26792C3.56269 7.26792 2.63209 6.33534 2.63209 5.24502C2.63209 4.69986 2.85649 4.25172 3.29737 3.89532C3.73891 3.53891 4.41343 3.29207 5.28001 3.29207ZM1.98001 9.9C1.80496 9.9 1.63709 9.96953 1.51332 10.0933C1.38954 10.2171 1.32001 10.385 1.32001 10.56V29.7C1.32001 29.875 1.38954 30.0429 1.51332 30.1667C1.63709 30.2905 1.80496 30.36 1.98001 30.36H8.58001C8.75505 30.36 8.92292 30.2905 9.0467 30.1667C9.17047 30.0429 9.24001 29.875 9.24001 29.7V10.56C9.24001 10.385 9.17047 10.2171 9.0467 10.0933C8.92292 9.96953 8.75505 9.9 8.58001 9.9H1.98001ZM11.88 9.9C11.705 9.9 11.5371 9.96953 11.4133 10.0933C11.2895 10.2171 11.22 10.385 11.22 10.56V29.7C11.22 29.875 11.2895 30.0429 11.4133 30.1667C11.5371 30.2905 11.705 30.36 11.88 30.36H18.48C18.6551 30.36 18.8229 30.2905 18.9467 30.1667C19.0705 30.0429 19.14 29.875 19.14 29.7V18.81C19.14 17.527 20.167 16.5 21.45 16.5C22.733 16.5 23.76 17.527 23.76 18.81V29.7C23.76 29.875 23.8295 30.0429 23.9533 30.1667C24.0771 30.2905 24.245 30.36 24.42 30.36H31.02C31.1951 30.36 31.3629 30.2905 31.4867 30.1667C31.6105 30.0429 31.68 29.875 31.68 29.7V18.48C31.68 15.7562 30.8801 13.5986 29.531 12.1275C28.182 10.6557 26.301 9.9 24.2794 9.9C21.7028 9.9 20.1445 10.8412 19.14 11.6173V10.56C19.14 10.385 19.0705 10.2171 18.9467 10.0933C18.8229 9.96953 18.6551 9.9 18.48 9.9H11.88ZM2.64001 11.22H7.92001V29.04H2.64001V11.22ZM12.54 11.22H17.82V12.9617C17.82 13.0953 17.8606 13.2257 17.9363 13.3357C18.0119 13.4457 18.1192 13.5302 18.2439 13.578C18.3686 13.6257 18.5049 13.6345 18.6347 13.6032C18.7645 13.5719 18.8818 13.502 18.971 13.4026C18.971 13.4026 20.9286 11.22 24.2794 11.22C25.9776 11.22 27.4666 11.8285 28.5582 13.0198C29.6498 14.2098 30.36 16.0129 30.36 18.48V29.04H25.08V18.81C25.0808 18.7169 25.0619 18.6247 25.0246 18.5394C24.878 16.6742 23.3508 15.18 21.45 15.18C19.4528 15.18 17.82 16.8128 17.82 18.81V29.04H12.54V11.22Z" fill="#2955B3"/>
</svg>
